<mxfile host="app.diagrams.net" modified="2023-11-27T11:47:41.543Z" agent="Mozilla/5.0 (Macintosh; Intel Mac OS X 10_15_7) AppleWebKit/605.1.15 (KHTML, like Gecko) Version/16.5.1 Safari/605.1.15" etag="vDUKn4nMoj11mAK1yeBJ" version="22.1.3" type="github">
  <diagram name="ページ1" id="JAHu5KNN9oW4rOjXCWvK">
    <mxGraphModel dx="584" dy="802" grid="1" gridSize="10" guides="1" tooltips="1" connect="1" arrows="1" fold="1" page="1" pageScale="1" pageWidth="827" pageHeight="1169" math="0" shadow="0">
      <root>
        <mxCell id="0" />
        <mxCell id="1" parent="0" />
        <mxCell id="FfyrciRABTonSbXyu3Ht-1" value="PG" style="shape=umlActor;verticalLabelPosition=bottom;verticalAlign=top;html=1;outlineConnect=0;" vertex="1" parent="1">
          <mxGeometry x="130" y="180" width="30" height="60" as="geometry" />
        </mxCell>
        <mxCell id="FfyrciRABTonSbXyu3Ht-4" value="SE" style="shape=umlActor;verticalLabelPosition=bottom;verticalAlign=top;html=1;outlineConnect=0;" vertex="1" parent="1">
          <mxGeometry x="560" y="180" width="30" height="60" as="geometry" />
        </mxCell>
        <mxCell id="FfyrciRABTonSbXyu3Ht-5" value="Google&lt;br&gt;ドライブ" style="rounded=1;whiteSpace=wrap;html=1;fillColor=#dae8fc;strokeColor=#6c8ebf;" vertex="1" parent="1">
          <mxGeometry x="310" y="40" width="120" height="60" as="geometry" />
        </mxCell>
        <mxCell id="FfyrciRABTonSbXyu3Ht-6" value="GitHub" style="rounded=1;whiteSpace=wrap;html=1;fillColor=#dae8fc;strokeColor=#6c8ebf;" vertex="1" parent="1">
          <mxGeometry x="310" y="160" width="120" height="60" as="geometry" />
        </mxCell>
        <mxCell id="FfyrciRABTonSbXyu3Ht-7" value="Slack" style="rounded=1;whiteSpace=wrap;html=1;fillColor=#f8cecc;strokeColor=#b85450;" vertex="1" parent="1">
          <mxGeometry x="310" y="280" width="120" height="60" as="geometry" />
        </mxCell>
        <mxCell id="FfyrciRABTonSbXyu3Ht-8" value="エクセル" style="rounded=1;whiteSpace=wrap;html=1;fillColor=#f8cecc;strokeColor=#b85450;" vertex="1" parent="1">
          <mxGeometry x="310" y="400" width="120" height="60" as="geometry" />
        </mxCell>
        <mxCell id="FfyrciRABTonSbXyu3Ht-9" value="" style="endArrow=none;html=1;rounded=0;entryX=0;entryY=0.5;entryDx=0;entryDy=0;" edge="1" parent="1" source="FfyrciRABTonSbXyu3Ht-1" target="FfyrciRABTonSbXyu3Ht-5">
          <mxGeometry width="50" height="50" relative="1" as="geometry">
            <mxPoint x="330" y="440" as="sourcePoint" />
            <mxPoint x="380" y="390" as="targetPoint" />
          </mxGeometry>
        </mxCell>
        <mxCell id="FfyrciRABTonSbXyu3Ht-10" value="" style="endArrow=none;html=1;rounded=0;exitX=1;exitY=0.5;exitDx=0;exitDy=0;" edge="1" parent="1" source="FfyrciRABTonSbXyu3Ht-5" target="FfyrciRABTonSbXyu3Ht-4">
          <mxGeometry width="50" height="50" relative="1" as="geometry">
            <mxPoint x="330" y="440" as="sourcePoint" />
            <mxPoint x="540" y="230" as="targetPoint" />
          </mxGeometry>
        </mxCell>
        <mxCell id="FfyrciRABTonSbXyu3Ht-11" value="設計書を閲覧" style="text;html=1;strokeColor=none;fillColor=none;align=center;verticalAlign=middle;whiteSpace=wrap;rounded=0;fontColor=#ff2600;fontSize=15;" vertex="1" parent="1">
          <mxGeometry x="190" y="40" width="100" height="30" as="geometry" />
        </mxCell>
        <mxCell id="FfyrciRABTonSbXyu3Ht-12" value="設計書を保存" style="text;html=1;strokeColor=none;fillColor=none;align=center;verticalAlign=middle;whiteSpace=wrap;rounded=0;fontColor=#ff2600;fontSize=15;" vertex="1" parent="1">
          <mxGeometry x="440" y="40" width="100" height="30" as="geometry" />
        </mxCell>
        <mxCell id="FfyrciRABTonSbXyu3Ht-13" value="" style="endArrow=none;html=1;rounded=0;" edge="1" parent="1" source="FfyrciRABTonSbXyu3Ht-1" target="FfyrciRABTonSbXyu3Ht-6">
          <mxGeometry width="50" height="50" relative="1" as="geometry">
            <mxPoint x="170" y="190" as="sourcePoint" />
            <mxPoint x="300" y="190" as="targetPoint" />
          </mxGeometry>
        </mxCell>
        <mxCell id="FfyrciRABTonSbXyu3Ht-14" value="" style="endArrow=none;html=1;rounded=0;entryX=0;entryY=0.3333333333333333;entryDx=0;entryDy=0;entryPerimeter=0;" edge="1" parent="1" source="FfyrciRABTonSbXyu3Ht-6" target="FfyrciRABTonSbXyu3Ht-4">
          <mxGeometry width="50" height="50" relative="1" as="geometry">
            <mxPoint x="440" y="80" as="sourcePoint" />
            <mxPoint x="570" y="206" as="targetPoint" />
          </mxGeometry>
        </mxCell>
        <mxCell id="FfyrciRABTonSbXyu3Ht-15" value="コードレビュー" style="text;html=1;strokeColor=none;fillColor=none;align=center;verticalAlign=middle;whiteSpace=wrap;rounded=0;fontColor=#ff2600;fontSize=15;" vertex="1" parent="1">
          <mxGeometry x="435" y="160" width="110" height="30" as="geometry" />
        </mxCell>
        <mxCell id="FfyrciRABTonSbXyu3Ht-18" value="PRを投げる" style="text;html=1;strokeColor=none;fillColor=none;align=center;verticalAlign=middle;whiteSpace=wrap;rounded=0;fontColor=#ff2600;fontSize=15;" vertex="1" parent="1">
          <mxGeometry x="180" y="175" width="110" height="30" as="geometry" />
        </mxCell>
        <mxCell id="FfyrciRABTonSbXyu3Ht-19" value="" style="endArrow=none;html=1;rounded=0;exitX=1.017;exitY=0.4;exitDx=0;exitDy=0;exitPerimeter=0;" edge="1" parent="1" source="FfyrciRABTonSbXyu3Ht-7" target="FfyrciRABTonSbXyu3Ht-4">
          <mxGeometry width="50" height="50" relative="1" as="geometry">
            <mxPoint x="440" y="203" as="sourcePoint" />
            <mxPoint x="570" y="210" as="targetPoint" />
          </mxGeometry>
        </mxCell>
        <mxCell id="FfyrciRABTonSbXyu3Ht-20" value="レビューコメント" style="text;html=1;strokeColor=none;fillColor=none;align=center;verticalAlign=middle;whiteSpace=wrap;rounded=0;fontColor=#ff2600;fontSize=15;" vertex="1" parent="1">
          <mxGeometry x="420" y="250" width="125" height="30" as="geometry" />
        </mxCell>
        <mxCell id="FfyrciRABTonSbXyu3Ht-21" value="" style="endArrow=none;html=1;rounded=0;entryX=0;entryY=0.5;entryDx=0;entryDy=0;" edge="1" parent="1" source="FfyrciRABTonSbXyu3Ht-1" target="FfyrciRABTonSbXyu3Ht-7">
          <mxGeometry width="50" height="50" relative="1" as="geometry">
            <mxPoint x="160" y="210" as="sourcePoint" />
            <mxPoint x="320" y="205" as="targetPoint" />
          </mxGeometry>
        </mxCell>
        <mxCell id="FfyrciRABTonSbXyu3Ht-22" value="質問・相談" style="text;html=1;strokeColor=none;fillColor=none;align=center;verticalAlign=middle;whiteSpace=wrap;rounded=0;fontColor=#ff2600;fontSize=15;" vertex="1" parent="1">
          <mxGeometry x="190" y="250" width="125" height="30" as="geometry" />
        </mxCell>
        <mxCell id="FfyrciRABTonSbXyu3Ht-23" value="" style="endArrow=none;html=1;rounded=0;entryX=0;entryY=0.5;entryDx=0;entryDy=0;" edge="1" parent="1" source="FfyrciRABTonSbXyu3Ht-1" target="FfyrciRABTonSbXyu3Ht-8">
          <mxGeometry width="50" height="50" relative="1" as="geometry">
            <mxPoint x="217.5" y="335" as="sourcePoint" />
            <mxPoint x="320" y="320" as="targetPoint" />
          </mxGeometry>
        </mxCell>
        <mxCell id="FfyrciRABTonSbXyu3Ht-24" value="" style="endArrow=none;html=1;rounded=0;exitX=1;exitY=0.5;exitDx=0;exitDy=0;" edge="1" parent="1" source="FfyrciRABTonSbXyu3Ht-8" target="FfyrciRABTonSbXyu3Ht-4">
          <mxGeometry width="50" height="50" relative="1" as="geometry">
            <mxPoint x="442" y="314" as="sourcePoint" />
            <mxPoint x="570" y="230" as="targetPoint" />
          </mxGeometry>
        </mxCell>
        <mxCell id="FfyrciRABTonSbXyu3Ht-26" value="全体の進捗チェック" style="text;html=1;strokeColor=none;fillColor=none;align=center;verticalAlign=middle;whiteSpace=wrap;rounded=0;fontColor=#ff2600;fontSize=15;" vertex="1" parent="1">
          <mxGeometry x="430" y="320" width="140" height="30" as="geometry" />
        </mxCell>
        <mxCell id="FfyrciRABTonSbXyu3Ht-28" value="" style="rounded=1;whiteSpace=wrap;html=1;fillColor=none;strokeColor=#ff2600;dashed=1;dashPattern=8 8;" vertex="1" parent="1">
          <mxGeometry x="300" y="270" width="140" height="210" as="geometry" />
        </mxCell>
        <mxCell id="FfyrciRABTonSbXyu3Ht-29" value="タスク管理・完了登録" style="text;html=1;strokeColor=none;fillColor=none;align=center;verticalAlign=middle;whiteSpace=wrap;rounded=0;fontColor=#ff2600;fontSize=15;" vertex="1" parent="1">
          <mxGeometry x="120" y="330" width="160" height="30" as="geometry" />
        </mxCell>
      </root>
    </mxGraphModel>
  </diagram>
</mxfile>
